<svg xmlns="http://www.w3.org/2000/svg" xmlns:xlink="http://www.w3.org/1999/xlink" viewBox="0 0 671.03 450.55"><defs><clipPath id="clip-path" transform="translate(149.62 137.72)"><rect width="432" height="288" style="fill:#ededed"/></clipPath><radialGradient id="radial-gradient" cx="364.25" cy="-4565.79" r="81.61" gradientTransform="matrix(2.72, 1.57, 0.15, -0.26, -106.47, -1584.28)" gradientUnits="userSpaceOnUse"><stop offset="0" stop-color="#b3b3b3"/><stop offset="0.09" stop-color="silver"/><stop offset="0.31" stop-color="#dcdcdc"/><stop offset="0.54" stop-color="#efefef"/><stop offset="0.77" stop-color="#fbfbfb"/><stop offset="1" stop-color="#fff"/></radialGradient><radialGradient id="radial-gradient-2" cx="385.56" cy="-4192.46" r="81.61" xlink:href="#radial-gradient"/><radialGradient id="radial-gradient-3" cx="-11.07" cy="-4329.42" r="81.61" gradientTransform="matrix(2.72, -1.57, -0.15, -0.26, -560.12, -966.37)" xlink:href="#radial-gradient"/><radialGradient id="radial-gradient-4" cx="44.6" cy="-3892.77" r="81.61" gradientTransform="matrix(2.72, -1.57, -0.15, -0.26, -560.12, -966.37)" xlink:href="#radial-gradient"/><linearGradient id="linear-gradient" x1="251.38" y1="60.97" x2="-113.8" y2="-304.22" gradientTransform="translate(334.69 450.04)" gradientUnits="userSpaceOnUse"><stop offset="0"/><stop offset="0.26" stop-color="#2f2f2f"/><stop offset="0.83" stop-color="#a4a4a4"/><stop offset="1" stop-color="#c7c7c7"/></linearGradient></defs><g style="isolation:isolate"><g id="Layer_1" data-name="Layer 1"><rect x="149.62" y="137.72" width="432" height="288" style="fill:#ededed"/><g style="clip-path:url(#clip-path)"><polygon points="149.16 124.64 167.98 135.5 167.98 113.78 149.16 124.64" style="fill:#f7f7f7"/><polygon points="167.99 135.5 186.81 146.37 186.81 124.64 167.99 135.5" style="fill:#f7f7f7"/><polygon points="186.79 124.64 167.98 113.78 167.98 135.5 186.79 124.64" style="fill:#e3e3e3"/><polygon points="167.98 135.5 149.16 124.64 149.16 146.37 167.98 135.5" style="fill:#f7f7f7"/><polygon points="149.16 146.37 167.98 157.23 167.98 135.5 149.16 146.37" style="fill:#f0f0f0"/><polygon points="186.79 146.37 167.98 135.5 167.98 157.23 186.79 146.37" style="fill:#f0f0f0"/><polygon points="186.79 124.64 205.61 135.5 205.61 113.78 186.79 124.64" style="fill:#f0f0f0"/><polygon points="205.63 135.5 224.44 146.37 224.44 124.64 205.63 135.5" style="fill:#f7f7f7"/><polygon points="224.43 124.64 205.61 113.78 205.61 135.5 224.43 124.64" style="fill:#f0f0f0"/><polygon points="205.61 135.5 186.79 124.64 186.79 146.37 205.61 135.5" style="fill:#e3e3e3"/><polygon points="186.79 146.37 205.61 157.23 205.61 135.5 186.79 146.37" style="fill:#d4d4d4"/><polygon points="224.43 146.37 205.61 135.5 205.61 157.23 224.43 146.37" style="fill:#f7f7f7"/><polygon points="224.43 124.64 243.24 135.5 243.24 113.78 224.43 124.64" style="fill:#d4d4d4"/><polygon points="243.26 135.5 262.07 146.37 262.07 124.64 243.26 135.5" style="fill:#f7f7f7"/><polygon points="262.06 124.64 243.24 113.78 243.24 135.5 262.06 124.64" style="fill:#e3e3e3"/><polygon points="243.24 135.5 224.43 124.64 224.43 146.37 243.24 135.5" style="fill:#e3e3e3"/><polygon points="224.43 146.37 243.24 157.23 243.24 135.5 224.43 146.37" style="fill:#f0f0f0"/><polygon points="262.06 146.37 243.24 135.5 243.24 157.23 262.06 146.37" style="fill:#d4d4d4"/><polygon points="262.06 124.64 280.88 135.5 280.88 113.78 262.06 124.64" style="fill:#f7f7f7"/><polygon points="280.89 135.5 299.71 146.37 299.71 124.64 280.89 135.5" style="fill:#f0f0f0"/><polygon points="299.69 124.64 280.88 113.78 280.88 135.5 299.69 124.64" style="fill:#e3e3e3"/><polygon points="280.88 135.5 262.06 124.64 262.06 146.37 280.88 135.5" style="fill:#e3e3e3"/><polygon points="262.06 146.37 280.88 157.23 280.88 135.5 262.06 146.37" style="fill:#f0f0f0"/><polygon points="299.69 146.37 280.88 135.5 280.88 157.23 299.69 146.37" style="fill:#f7f7f7"/><polygon points="299.69 124.64 318.51 135.5 318.51 113.78 299.69 124.64" style="fill:#e3e3e3"/><polygon points="318.52 135.5 337.34 146.37 337.34 124.64 318.52 135.5" style="fill:#d4d4d4"/><polygon points="337.32 124.64 318.51 113.78 318.51 135.5 337.32 124.64" style="fill:#f0f0f0"/><polygon points="318.51 135.5 299.69 124.64 299.69 146.37 318.51 135.5" style="fill:#e3e3e3"/><polygon points="299.69 146.37 318.51 157.23 318.51 135.5 299.69 146.37" style="fill:#d4d4d4"/><polygon points="337.32 146.37 318.51 135.5 318.51 157.23 337.32 146.37" style="fill:#f0f0f0"/><polygon points="337.32 124.64 356.14 135.5 356.14 113.78 337.32 124.64" style="fill:#e3e3e3"/><polygon points="356.15 135.5 374.97 146.37 374.97 124.64 356.15 135.5" style="fill:#f0f0f0"/><polygon points="374.96 124.64 356.14 113.78 356.14 135.5 374.96 124.64" style="fill:#f7f7f7"/><polygon points="356.14 135.5 337.32 124.64 337.32 146.37 356.14 135.5" style="fill:#f0f0f0"/><polygon points="337.32 146.37 356.14 157.23 356.14 135.5 337.32 146.37" style="fill:#f0f0f0"/><polygon points="374.96 146.37 356.14 135.5 356.14 157.23 374.96 146.37" style="fill:#f0f0f0"/><polygon points="374.96 124.64 393.77 135.5 393.77 113.78 374.96 124.64" style="fill:#e3e3e3"/><polygon points="393.79 135.5 412.6 146.37 412.6 124.64 393.79 135.5" style="fill:#f0f0f0"/><polygon points="412.59 124.64 393.77 113.78 393.77 135.5 412.59 124.64" style="fill:#f0f0f0"/><polygon points="393.77 135.5 374.96 124.64 374.96 146.37 393.77 135.5" style="fill:#f0f0f0"/><polygon points="374.96 146.37 393.77 157.23 393.77 135.5 374.96 146.37" style="fill:#e3e3e3"/><polygon points="412.59 146.37 393.77 135.5 393.77 157.23 412.59 146.37" style="fill:#f0f0f0"/><polygon points="412.59 124.64 431.41 135.5 431.41 113.78 412.59 124.64" style="fill:#f7f7f7"/><polygon points="431.42 135.5 450.24 146.37 450.24 124.64 431.42 135.5" style="fill:#f0f0f0"/><polygon points="450.22 124.64 431.41 113.78 431.41 135.5 450.22 124.64" style="fill:#d4d4d4"/><polygon points="431.41 135.5 412.59 124.64 412.59 146.37 431.41 135.5" style="fill:#f7f7f7"/><polygon points="412.59 146.37 431.41 157.23 431.41 135.5 412.59 146.37" style="fill:#f0f0f0"/><polygon points="450.22 146.37 431.41 135.5 431.41 157.23 450.22 146.37" style="fill:#e3e3e3"/><polygon points="450.22 124.64 469.04 135.5 469.04 113.78 450.22 124.64" style="fill:#f7f7f7"/><polygon points="469.05 135.5 487.87 146.37 487.87 124.64 469.05 135.5" style="fill:#f7f7f7"/><polygon points="487.86 124.64 469.04 113.78 469.04 135.5 487.86 124.64" style="fill:#f0f0f0"/><polygon points="469.04 135.5 450.22 124.64 450.22 146.37 469.04 135.5" style="fill:#e3e3e3"/><polygon points="450.22 146.37 469.04 157.23 469.04 135.5 450.22 146.37" style="fill:#e3e3e3"/><polygon points="487.86 146.37 469.04 135.5 469.04 157.23 487.86 146.37" style="fill:#f0f0f0"/><polygon points="487.86 124.64 506.67 135.5 506.67 113.78 487.86 124.64" style="fill:#e3e3e3"/><polygon points="506.69 135.5 525.5 146.37 525.5 124.64 506.69 135.5" style="fill:#f0f0f0"/><polygon points="525.49 124.64 506.67 113.78 506.67 135.5 525.49 124.64" style="fill:#e3e3e3"/><polygon points="506.67 135.5 487.86 124.64 487.86 146.37 506.67 135.5" style="fill:#f0f0f0"/><polygon points="487.86 146.37 506.67 157.23 506.67 135.5 487.86 146.37" style="fill:#e3e3e3"/><polygon points="525.49 146.37 506.67 135.5 506.67 157.23 525.49 146.37" style="fill:#f7f7f7"/><polygon points="525.49 124.64 544.3 135.5 544.3 113.78 525.49 124.64" style="fill:#e3e3e3"/><polygon points="544.32 135.5 563.13 146.37 563.13 124.64 544.32 135.5" style="fill:#f0f0f0"/><polygon points="563.12 124.64 544.3 113.78 544.3 135.5 563.12 124.64" style="fill:#e3e3e3"/><polygon points="544.3 135.5 525.49 124.64 525.49 146.37 544.3 135.5" style="fill:#f0f0f0"/><polygon points="525.49 146.37 544.3 157.23 544.3 135.5 525.49 146.37" style="fill:#f0f0f0"/><polygon points="563.12 146.37 544.3 135.5 544.3 157.23 563.12 146.37" style="fill:#f7f7f7"/><polygon points="563.12 124.64 581.94 135.5 581.94 113.78 563.12 124.64" style="fill:#f0f0f0"/><polygon points="581.95 135.5 600.77 146.37 600.77 124.64 581.95 135.5" style="fill:#f0f0f0"/><polygon points="600.75 124.64 581.94 113.78 581.94 135.5 600.75 124.64" style="fill:#f0f0f0"/><polygon points="581.94 135.5 563.12 124.64 563.12 146.37 581.94 135.5" style="fill:#f7f7f7"/><polygon points="563.12 146.37 581.94 157.23 581.94 135.5 563.12 146.37" style="fill:#d4d4d4"/><polygon points="600.75 146.37 581.94 135.5 581.94 157.23 600.75 146.37" style="fill:#e3e3e3"/><polygon points="130.34 157.23 149.16 168.09 149.16 146.37 130.34 157.23" style="fill:#f7f7f7"/><polygon points="149.18 168.09 167.99 178.96 167.99 157.23 149.18 168.09" style="fill:#e3e3e3"/><polygon points="167.98 157.23 149.16 146.37 149.16 168.09 167.98 157.23" style="fill:#d4d4d4"/><polygon points="149.16 168.09 130.34 157.23 130.34 178.96 149.16 168.09" style="fill:#f0f0f0"/><polygon points="130.34 178.96 149.16 189.82 149.16 168.09 130.34 178.96" style="fill:#d4d4d4"/><polygon points="167.98 178.96 149.16 168.09 149.16 189.82 167.98 178.96" style="fill:#f7f7f7"/><polygon points="167.98 157.23 186.79 168.09 186.79 146.37 167.98 157.23" style="fill:#e3e3e3"/><polygon points="186.81 168.09 205.63 178.96 205.63 157.23 186.81 168.09" style="fill:#f7f7f7"/><polygon points="205.61 157.23 186.79 146.37 186.79 168.09 205.61 157.23" style="fill:#e3e3e3"/><polygon points="186.79 168.09 167.98 157.23 167.98 178.96 186.79 168.09" style="fill:#f0f0f0"/><polygon points="167.98 178.96 186.79 189.82 186.79 168.09 167.98 178.96" style="fill:#e3e3e3"/><polygon points="205.61 178.96 186.79 168.09 186.79 189.82 205.61 178.96" style="fill:#f7f7f7"/><polygon points="205.61 157.23 224.43 168.09 224.43 146.37 205.61 157.23" style="fill:#d4d4d4"/><polygon points="224.44 168.09 243.26 178.96 243.26 157.23 224.44 168.09" style="fill:#f0f0f0"/><polygon points="243.24 157.23 224.43 146.37 224.43 168.09 243.24 157.23" style="fill:#e3e3e3"/><polygon points="224.43 168.09 205.61 157.23 205.61 178.96 224.43 168.09" style="fill:#e3e3e3"/><polygon points="205.61 178.96 224.43 189.82 224.43 168.09 205.61 178.96" style="fill:#d4d4d4"/><polygon points="243.24 178.96 224.43 168.09 224.43 189.82 243.24 178.96" style="fill:#f0f0f0"/><polygon points="243.24 157.23 262.06 168.09 262.06 146.37 243.24 157.23" style="fill:#f0f0f0"/><polygon points="262.07 168.09 280.89 178.96 280.89 157.23 262.07 168.09" style="fill:#d4d4d4"/><polygon points="280.88 157.23 262.06 146.37 262.06 168.09 280.88 157.23" style="fill:#e3e3e3"/><polygon points="262.06 168.09 243.24 157.23 243.24 178.96 262.06 168.09" style="fill:#f0f0f0"/><polygon points="243.24 178.96 262.06 189.82 262.06 168.09 243.24 178.96" style="fill:#e3e3e3"/><polygon points="280.88 178.96 262.06 168.09 262.06 189.82 280.88 178.96" style="fill:#e3e3e3"/><polygon points="280.88 157.23 299.69 168.09 299.69 146.37 280.88 157.23" style="fill:#f0f0f0"/><polygon points="299.71 168.09 318.52 178.96 318.52 157.23 299.71 168.09" style="fill:#e3e3e3"/><polygon points="318.51 157.23 299.69 146.37 299.69 168.09 318.51 157.23" style="fill:#f7f7f7"/><polygon points="299.69 168.09 280.88 157.23 280.88 178.96 299.69 168.09" style="fill:#f0f0f0"/><polygon points="280.88 178.96 299.69 189.82 299.69 168.09 280.88 178.96" style="fill:#e3e3e3"/><polygon points="318.51 178.96 299.69 168.09 299.69 189.82 318.51 178.96" style="fill:#e3e3e3"/><polygon points="318.51 157.23 337.32 168.09 337.32 146.37 318.51 157.23" style="fill:#e3e3e3"/><polygon points="337.34 168.09 356.15 178.96 356.15 157.23 337.34 168.09" style="fill:#d4d4d4"/><polygon points="356.14 157.23 337.32 146.37 337.32 168.09 356.14 157.23" style="fill:#e3e3e3"/><polygon points="337.32 168.09 318.51 157.23 318.51 178.96 337.32 168.09" style="fill:#e3e3e3"/><polygon points="318.51 178.96 337.32 189.82 337.32 168.09 318.51 178.96" style="fill:#e3e3e3"/><polygon points="356.14 178.96 337.32 168.09 337.32 189.82 356.14 178.96" style="fill:#f0f0f0"/><polygon points="356.14 157.23 374.96 168.09 374.96 146.37 356.14 157.23" style="fill:#f0f0f0"/><polygon points="374.97 168.09 393.79 178.96 393.79 157.23 374.97 168.09" style="fill:#f7f7f7"/><polygon points="393.77 157.23 374.96 146.37 374.96 168.09 393.77 157.23" style="fill:#e3e3e3"/><polygon points="374.96 168.09 356.14 157.23 356.14 178.96 374.96 168.09" style="fill:#e3e3e3"/><polygon points="356.14 178.96 374.96 189.82 374.96 168.09 356.14 178.96" style="fill:#f0f0f0"/><polygon points="393.77 178.96 374.96 168.09 374.96 189.82 393.77 178.96" style="fill:#f0f0f0"/><polygon points="393.77 157.23 412.59 168.09 412.59 146.37 393.77 157.23" style="fill:#f0f0f0"/><polygon points="412.6 168.09 431.42 178.96 431.42 157.23 412.6 168.09" style="fill:#d4d4d4"/><polygon points="431.41 157.23 412.59 146.37 412.59 168.09 431.41 157.23" style="fill:#f0f0f0"/><polygon points="412.59 168.09 393.77 157.23 393.77 178.96 412.59 168.09" style="fill:#e3e3e3"/><polygon points="393.77 178.96 412.59 189.82 412.59 168.09 393.77 178.96" style="fill:#e3e3e3"/><polygon points="431.41 178.96 412.59 168.09 412.59 189.82 431.41 178.96" style="fill:#d4d4d4"/><polygon points="431.41 157.23 450.22 168.09 450.22 146.37 431.41 157.23" style="fill:#d4d4d4"/><polygon points="450.24 168.09 469.05 178.96 469.05 157.23 450.24 168.09" style="fill:#e3e3e3"/><polygon points="469.04 157.23 450.22 146.37 450.22 168.09 469.04 157.23" style="fill:#e3e3e3"/><polygon points="450.22 168.09 431.41 157.23 431.41 178.96 450.22 168.09" style="fill:#d4d4d4"/><polygon points="431.41 178.96 450.22 189.82 450.22 168.09 431.41 178.96" style="fill:#f0f0f0"/><polygon points="469.04 178.96 450.22 168.09 450.22 189.82 469.04 178.96" style="fill:#d4d4d4"/><polygon points="469.04 157.23 487.86 168.09 487.86 146.37 469.04 157.23" style="fill:#e3e3e3"/><polygon points="487.87 168.09 506.69 178.96 506.69 157.23 487.87 168.09" style="fill:#f0f0f0"/><polygon points="506.67 157.23 487.86 146.37 487.86 168.09 506.67 157.23" style="fill:#e3e3e3"/><polygon points="487.86 168.09 469.04 157.23 469.04 178.96 487.86 168.09" style="fill:#f0f0f0"/><polygon points="469.04 178.96 487.86 189.82 487.86 168.09 469.04 178.96" style="fill:#f0f0f0"/><polygon points="506.67 178.96 487.86 168.09 487.86 189.82 506.67 178.96" style="fill:#e3e3e3"/><polygon points="506.67 157.23 525.49 168.09 525.49 146.37 506.67 157.23" style="fill:#f7f7f7"/><polygon points="525.5 168.09 544.32 178.96 544.32 157.23 525.5 168.09" style="fill:#d4d4d4"/><polygon points="544.3 157.23 525.49 146.37 525.49 168.09 544.3 157.23" style="fill:#e3e3e3"/><polygon points="525.49 168.09 506.67 157.23 506.67 178.96 525.49 168.09" style="fill:#d4d4d4"/><polygon points="506.67 178.96 525.49 189.82 525.49 168.09 506.67 178.96" style="fill:#d4d4d4"/><polygon points="544.3 178.96 525.49 168.09 525.49 189.82 544.3 178.96" style="fill:#d4d4d4"/><polygon points="544.3 157.23 563.12 168.09 563.12 146.37 544.3 157.23" style="fill:#e3e3e3"/><polygon points="563.13 168.09 581.95 178.96 581.95 157.23 563.13 168.09" style="fill:#f0f0f0"/><polygon points="581.94 157.23 563.12 146.37 563.12 168.09 581.94 157.23" style="fill:#f0f0f0"/><polygon points="563.12 168.09 544.3 157.23 544.3 178.96 563.12 168.09" style="fill:#e3e3e3"/><polygon points="544.3 178.96 563.12 189.82 563.12 168.09 544.3 178.96" style="fill:#e3e3e3"/><polygon points="581.94 178.96 563.12 168.09 563.12 189.82 581.94 178.96" style="fill:#f0f0f0"/><polygon points="149.16 189.82 167.98 200.68 167.98 178.96 149.16 189.82" style="fill:#f7f7f7"/><polygon points="167.99 200.68 186.81 211.55 186.81 189.82 167.99 200.68" style="fill:#d4d4d4"/><polygon points="186.79 189.82 167.98 178.96 167.98 200.68 186.79 189.82" style="fill:#d4d4d4"/><polygon points="167.98 200.68 149.16 189.82 149.16 211.55 167.98 200.68" style="fill:#f0f0f0"/><polygon points="149.16 211.55 167.98 222.41 167.98 200.68 149.16 211.55" style="fill:#f0f0f0"/><polygon points="186.79 211.55 167.98 200.68 167.98 222.41 186.79 211.55" style="fill:#f0f0f0"/><polygon points="186.79 189.82 205.61 200.68 205.61 178.96 186.79 189.82" style="fill:#f0f0f0"/><polygon points="205.63 200.68 224.44 211.55 224.44 189.82 205.63 200.68" style="fill:#f7f7f7"/><polygon points="224.43 189.82 205.61 178.96 205.61 200.68 224.43 189.82" style="fill:#e3e3e3"/><polygon points="205.61 200.68 186.79 189.82 186.79 211.55 205.61 200.68" style="fill:#f0f0f0"/><polygon points="186.79 211.55 205.61 222.41 205.61 200.68 186.79 211.55" style="fill:#f7f7f7"/><polygon points="224.43 211.55 205.61 200.68 205.61 222.41 224.43 211.55" style="fill:#f0f0f0"/><polygon points="224.43 189.82 243.24 200.68 243.24 178.96 224.43 189.82" style="fill:#f7f7f7"/><polygon points="243.26 200.68 262.07 211.55 262.07 189.82 243.26 200.68" style="fill:#e3e3e3"/><polygon points="262.06 189.82 243.24 178.96 243.24 200.68 262.06 189.82" style="fill:#e3e3e3"/><polygon points="243.24 200.68 224.43 189.82 224.43 211.55 243.24 200.68" style="fill:#f7f7f7"/><polygon points="224.43 211.55 243.24 222.41 243.24 200.68 224.43 211.55" style="fill:#e3e3e3"/><polygon points="262.06 211.55 243.24 200.68 243.24 222.41 262.06 211.55" style="fill:#f0f0f0"/><polygon points="262.06 189.82 280.88 200.68 280.88 178.96 262.06 189.82" style="fill:#f7f7f7"/><polygon points="280.89 200.68 299.71 211.55 299.71 189.82 280.89 200.68" style="fill:#e3e3e3"/><polygon points="299.69 189.82 280.88 178.96 280.88 200.68 299.69 189.82" style="fill:#f0f0f0"/><polygon points="280.88 200.68 262.06 189.82 262.06 211.55 280.88 200.68" style="fill:#e3e3e3"/><polygon points="262.06 211.55 280.88 222.41 280.88 200.68 262.06 211.55" style="fill:#f0f0f0"/><polygon points="299.69 211.55 280.88 200.68 280.88 222.41 299.69 211.55" style="fill:#f0f0f0"/><polygon points="299.69 189.82 318.51 200.68 318.51 178.96 299.69 189.82" style="fill:#f0f0f0"/><polygon points="318.52 200.68 337.34 211.55 337.34 189.82 318.52 200.68" style="fill:#f0f0f0"/><polygon points="337.32 189.82 318.51 178.96 318.51 200.68 337.32 189.82" style="fill:#e3e3e3"/><polygon points="318.51 200.68 299.69 189.82 299.69 211.55 318.51 200.68" style="fill:#f0f0f0"/><polygon points="299.69 211.55 318.51 222.41 318.51 200.68 299.69 211.55" style="fill:#d4d4d4"/><polygon points="337.32 211.55 318.51 200.68 318.51 222.41 337.32 211.55" style="fill:#f0f0f0"/><polygon points="337.32 189.82 356.14 200.68 356.14 178.96 337.32 189.82" style="fill:#f7f7f7"/><polygon points="356.15 200.68 374.97 211.55 374.97 189.82 356.15 200.68" style="fill:#f0f0f0"/><polygon points="374.96 189.82 356.14 178.96 356.14 200.68 374.96 189.82" style="fill:#f7f7f7"/><polygon points="356.14 200.68 337.32 189.82 337.32 211.55 356.14 200.68" style="fill:#e3e3e3"/><polygon points="337.32 211.55 356.14 222.41 356.14 200.68 337.32 211.55" style="fill:#d4d4d4"/><polygon points="374.96 211.55 356.14 200.68 356.14 222.41 374.96 211.55" style="fill:#d4d4d4"/><polygon points="374.96 189.82 393.77 200.68 393.77 178.96 374.96 189.82" style="fill:#e3e3e3"/><polygon points="393.79 200.68 412.6 211.55 412.6 189.82 393.79 200.68" style="fill:#e3e3e3"/><polygon points="412.59 189.82 393.77 178.96 393.77 200.68 412.59 189.82" style="fill:#f0f0f0"/><polygon points="393.77 200.68 374.96 189.82 374.96 211.55 393.77 200.68" style="fill:#e3e3e3"/><polygon points="374.96 211.55 393.77 222.41 393.77 200.68 374.96 211.55" style="fill:#f0f0f0"/><polygon points="412.59 211.55 393.77 200.68 393.77 222.41 412.59 211.55" style="fill:#e3e3e3"/><polygon points="412.59 189.82 431.41 200.68 431.41 178.96 412.59 189.82" style="fill:#f0f0f0"/><polygon points="431.42 200.68 450.24 211.55 450.24 189.82 431.42 200.68" style="fill:#d4d4d4"/><polygon points="450.22 189.82 431.41 178.96 431.41 200.68 450.22 189.82" style="fill:#f0f0f0"/><polygon points="431.41 200.68 412.59 189.82 412.59 211.55 431.41 200.68" style="fill:#f0f0f0"/><polygon points="412.59 211.55 431.41 222.41 431.41 200.68 412.59 211.55" style="fill:#f7f7f7"/><polygon points="450.22 211.55 431.41 200.68 431.41 222.41 450.22 211.55" style="fill:#f7f7f7"/><polygon points="450.22 189.82 469.04 200.68 469.04 178.96 450.22 189.82" style="fill:#e3e3e3"/><polygon points="469.05 200.68 487.87 211.55 487.87 189.82 469.05 200.68" style="fill:#d4d4d4"/><polygon points="487.86 189.82 469.04 178.96 469.04 200.68 487.86 189.82" style="fill:#d4d4d4"/><polygon points="469.04 200.68 450.22 189.82 450.22 211.55 469.04 200.68" style="fill:#f0f0f0"/><polygon points="450.22 211.55 469.04 222.41 469.04 200.68 450.22 211.55" style="fill:#e3e3e3"/><polygon points="487.86 211.55 469.04 200.68 469.04 222.41 487.86 211.55" style="fill:#f7f7f7"/><polygon points="487.86 189.82 506.67 200.68 506.67 178.96 487.86 189.82" style="fill:#f0f0f0"/><polygon points="506.69 200.68 525.5 211.55 525.5 189.82 506.69 200.68" style="fill:#f7f7f7"/><polygon points="525.49 189.82 506.67 178.96 506.67 200.68 525.49 189.82" style="fill:#d4d4d4"/><polygon points="506.67 200.68 487.86 189.82 487.86 211.55 506.67 200.68" style="fill:#f0f0f0"/><polygon points="487.86 211.55 506.67 222.41 506.67 200.68 487.86 211.55" style="fill:#f7f7f7"/><polygon points="525.49 211.55 506.67 200.68 506.67 222.41 525.49 211.55" style="fill:#f7f7f7"/><polygon points="525.49 189.82 544.3 200.68 544.3 178.96 525.49 189.82" style="fill:#f0f0f0"/><polygon points="544.32 200.68 563.13 211.55 563.13 189.82 544.32 200.68" style="fill:#d4d4d4"/><polygon points="563.12 189.82 544.3 178.96 544.3 200.68 563.12 189.82" style="fill:#e3e3e3"/><polygon points="544.3 200.68 525.49 189.82 525.49 211.55 544.3 200.68" style="fill:#e3e3e3"/><polygon points="525.49 211.55 544.3 222.41 544.3 200.68 525.49 211.55" style="fill:#f7f7f7"/><polygon points="563.12 211.55 544.3 200.68 544.3 222.41 563.12 211.55" style="fill:#f7f7f7"/><polygon points="563.12 189.82 581.94 200.68 581.94 178.96 563.12 189.82" style="fill:#e3e3e3"/><polygon points="581.95 200.68 600.77 211.55 600.77 189.82 581.95 200.68" style="fill:#f7f7f7"/><polygon points="600.75 189.82 581.94 178.96 581.94 200.68 600.75 189.82" style="fill:#d4d4d4"/><polygon points="581.94 200.68 563.12 189.82 563.12 211.55 581.94 200.68" style="fill:#f7f7f7"/><polygon points="563.12 211.55 581.94 222.41 581.94 200.68 563.12 211.55" style="fill:#d4d4d4"/><polygon points="600.75 211.55 581.94 200.68 581.94 222.41 600.75 211.55" style="fill:#e3e3e3"/><polygon points="130.34 222.41 149.16 233.28 149.16 211.55 130.34 222.41" style="fill:#e3e3e3"/><polygon points="149.18 233.28 167.99 244.14 167.99 222.41 149.18 233.28" style="fill:#f0f0f0"/><polygon points="167.98 222.41 149.16 211.55 149.16 233.28 167.98 222.41" style="fill:#f0f0f0"/><polygon points="149.16 233.28 130.34 222.41 130.34 244.14 149.16 233.28" style="fill:#d4d4d4"/><polygon points="130.34 244.14 149.16 255 149.16 233.28 130.34 244.14" style="fill:#f7f7f7"/><polygon points="167.98 244.14 149.16 233.28 149.16 255 167.98 244.14" style="fill:#f7f7f7"/><polygon points="167.98 222.41 186.79 233.28 186.79 211.55 167.98 222.41" style="fill:#f7f7f7"/><polygon points="186.81 233.28 205.63 244.14 205.63 222.41 186.81 233.28" style="fill:#f0f0f0"/><polygon points="205.61 222.41 186.79 211.55 186.79 233.28 205.61 222.41" style="fill:#d4d4d4"/><polygon points="186.79 233.28 167.98 222.41 167.98 244.14 186.79 233.28" style="fill:#d4d4d4"/><polygon points="167.98 244.14 186.79 255 186.79 233.28 167.98 244.14" style="fill:#e3e3e3"/><polygon points="205.61 244.14 186.79 233.28 186.79 255 205.61 244.14" style="fill:#f0f0f0"/><polygon points="205.61 222.41 224.43 233.28 224.43 211.55 205.61 222.41" style="fill:#f0f0f0"/><polygon points="224.44 233.28 243.26 244.14 243.26 222.41 224.44 233.28" style="fill:#f0f0f0"/><polygon points="243.24 222.41 224.43 211.55 224.43 233.28 243.24 222.41" style="fill:#e3e3e3"/><polygon points="224.43 233.28 205.61 222.41 205.61 244.14 224.43 233.28" style="fill:#f0f0f0"/><polygon points="205.61 244.14 224.43 255 224.43 233.28 205.61 244.14" style="fill:#d4d4d4"/><polygon points="243.24 244.14 224.43 233.28 224.43 255 243.24 244.14" style="fill:#f0f0f0"/><polygon points="243.24 222.41 262.06 233.28 262.06 211.55 243.24 222.41" style="fill:#f0f0f0"/><polygon points="262.07 233.28 280.89 244.14 280.89 222.41 262.07 233.28" style="fill:#f0f0f0"/><polygon points="280.88 222.41 262.06 211.55 262.06 233.28 280.88 222.41" style="fill:#f0f0f0"/><polygon points="262.06 233.28 243.24 222.41 243.24 244.14 262.06 233.28" style="fill:#f0f0f0"/><polygon points="243.24 244.14 262.06 255 262.06 233.28 243.24 244.14" style="fill:#f7f7f7"/><polygon points="280.88 244.14 262.06 233.28 262.06 255 280.88 244.14" style="fill:#d4d4d4"/><polygon points="280.88 222.41 299.69 233.28 299.69 211.55 280.88 222.41" style="fill:#d4d4d4"/><polygon points="299.71 233.28 318.52 244.14 318.52 222.41 299.71 233.28" style="fill:#f0f0f0"/><polygon points="318.51 222.41 299.69 211.55 299.69 233.28 318.51 222.41" style="fill:#f0f0f0"/><polygon points="299.69 233.28 280.88 222.41 280.88 244.14 299.69 233.28" style="fill:#f0f0f0"/><polygon points="280.88 244.14 299.69 255 299.69 233.28 280.88 244.14" style="fill:#e3e3e3"/><polygon points="318.51 244.14 299.69 233.28 299.69 255 318.51 244.14" style="fill:#e3e3e3"/><polygon points="318.51 222.41 337.32 233.28 337.32 211.55 318.51 222.41" style="fill:#f0f0f0"/><polygon points="337.34 233.28 356.15 244.14 356.15 222.41 337.34 233.28" style="fill:#e3e3e3"/><polygon points="356.14 222.41 337.32 211.55 337.32 233.28 356.14 222.41" style="fill:#f7f7f7"/><polygon points="337.32 233.28 318.51 222.41 318.51 244.14 337.32 233.28" style="fill:#e3e3e3"/><polygon points="318.51 244.14 337.32 255 337.32 233.28 318.51 244.14" style="fill:#e3e3e3"/><polygon points="356.14 244.14 337.32 233.28 337.32 255 356.14 244.14" style="fill:#f0f0f0"/><polygon points="356.14 222.41 374.96 233.28 374.96 211.55 356.14 222.41" style="fill:#e3e3e3"/><polygon points="374.97 233.28 393.79 244.14 393.79 222.41 374.97 233.28" style="fill:#e3e3e3"/><polygon points="393.77 222.41 374.96 211.55 374.96 233.28 393.77 222.41" style="fill:#f0f0f0"/><polygon points="374.96 233.28 356.14 222.41 356.14 244.14 374.96 233.28" style="fill:#d4d4d4"/><polygon points="356.14 244.14 374.96 255 374.96 233.28 356.14 244.14" style="fill:#d4d4d4"/><polygon points="393.77 244.14 374.96 233.28 374.96 255 393.77 244.14" style="fill:#f7f7f7"/><polygon points="393.77 222.41 412.59 233.28 412.59 211.55 393.77 222.41" style="fill:#f0f0f0"/><polygon points="412.6 233.28 431.42 244.14 431.42 222.41 412.6 233.28" style="fill:#f0f0f0"/><polygon points="431.41 222.41 412.59 211.55 412.59 233.28 431.41 222.41" style="fill:#f0f0f0"/><polygon points="412.59 233.28 393.77 222.41 393.77 244.14 412.59 233.28" style="fill:#e3e3e3"/><polygon points="393.77 244.14 412.59 255 412.59 233.28 393.77 244.14" style="fill:#f7f7f7"/><polygon points="431.41 244.14 412.59 233.28 412.59 255 431.41 244.14" style="fill:#f7f7f7"/><polygon points="431.41 222.41 450.22 233.28 450.22 211.55 431.41 222.41" style="fill:#e3e3e3"/><polygon points="450.24 233.28 469.05 244.14 469.05 222.41 450.24 233.28" style="fill:#f7f7f7"/><polygon points="469.04 222.41 450.22 211.55 450.22 233.28 469.04 222.41" style="fill:#f0f0f0"/><polygon points="450.22 233.28 431.41 222.41 431.41 244.14 450.22 233.28" style="fill:#d4d4d4"/><polygon points="431.41 244.14 450.22 255 450.22 233.28 431.41 244.14" style="fill:#f0f0f0"/><polygon points="469.04 244.14 450.22 233.28 450.22 255 469.04 244.14" style="fill:#f0f0f0"/><polygon points="469.04 222.41 487.86 233.28 487.86 211.55 469.04 222.41" style="fill:#f0f0f0"/><polygon points="487.87 233.28 506.69 244.14 506.69 222.41 487.87 233.28" style="fill:#f7f7f7"/><polygon points="506.67 222.41 487.86 211.55 487.86 233.28 506.67 222.41" style="fill:#f0f0f0"/><polygon points="487.86 233.28 469.04 222.41 469.04 244.14 487.86 233.28" style="fill:#e3e3e3"/><polygon points="469.04 244.14 487.86 255 487.86 233.28 469.04 244.14" style="fill:#f7f7f7"/><polygon points="506.67 244.14 487.86 233.28 487.86 255 506.67 244.14" style="fill:#f7f7f7"/><polygon points="506.67 222.41 525.49 233.28 525.49 211.55 506.67 222.41" style="fill:#e3e3e3"/><polygon points="525.5 233.28 544.32 244.14 544.32 222.41 525.5 233.28" style="fill:#e3e3e3"/><polygon points="544.3 222.41 525.49 211.55 525.49 233.28 544.3 222.41" style="fill:#f0f0f0"/><polygon points="525.49 233.28 506.67 222.41 506.67 244.14 525.49 233.28" style="fill:#f7f7f7"/><polygon points="506.67 244.14 525.49 255 525.49 233.28 506.67 244.14" style="fill:#d4d4d4"/><polygon points="544.3 244.14 525.49 233.28 525.49 255 544.3 244.14" style="fill:#f0f0f0"/><polygon points="544.3 222.41 563.12 233.28 563.12 211.55 544.3 222.41" style="fill:#e3e3e3"/><polygon points="563.13 233.28 581.95 244.14 581.95 222.41 563.13 233.28" style="fill:#f0f0f0"/><polygon points="581.94 222.41 563.12 211.55 563.12 233.28 581.94 222.41" style="fill:#f0f0f0"/><polygon points="563.12 233.28 544.3 222.41 544.3 244.14 563.12 233.28" style="fill:#f7f7f7"/><polygon points="544.3 244.14 563.12 255 563.12 233.28 544.3 244.14" style="fill:#e3e3e3"/><polygon points="581.94 244.14 563.12 233.28 563.12 255 581.94 244.14" style="fill:#f7f7f7"/><polygon points="149.16 255 167.98 265.87 167.98 244.14 149.16 255" style="fill:#d4d4d4"/><polygon points="167.99 265.87 186.81 276.73 186.81 255 167.99 265.87" style="fill:#f0f0f0"/><polygon points="186.79 255 167.98 244.14 167.98 265.87 186.79 255" style="fill:#e3e3e3"/><polygon points="167.98 265.87 149.16 255 149.16 276.73 167.98 265.87" style="fill:#d4d4d4"/><polygon points="149.16 276.73 167.98 287.59 167.98 265.87 149.16 276.73" style="fill:#f0f0f0"/><polygon points="186.79 276.73 167.98 265.87 167.98 287.59 186.79 276.73" style="fill:#e3e3e3"/><polygon points="186.79 255 205.61 265.87 205.61 244.14 186.79 255" style="fill:#e3e3e3"/><polygon points="205.63 265.87 224.44 276.73 224.44 255 205.63 265.87" style="fill:#f0f0f0"/><polygon points="224.43 255 205.61 244.14 205.61 265.87 224.43 255" style="fill:#f0f0f0"/><polygon points="205.61 265.87 186.79 255 186.79 276.73 205.61 265.87" style="fill:#f7f7f7"/><polygon points="186.79 276.73 205.61 287.59 205.61 265.87 186.79 276.73" style="fill:#f7f7f7"/><polygon points="224.43 276.73 205.61 265.87 205.61 287.59 224.43 276.73" style="fill:#f7f7f7"/><polygon points="224.43 255 243.24 265.87 243.24 244.14 224.43 255" style="fill:#e3e3e3"/><polygon points="243.26 265.87 262.07 276.73 262.07 255 243.26 265.87" style="fill:#f0f0f0"/><polygon points="262.06 255 243.24 244.14 243.24 265.87 262.06 255" style="fill:#e3e3e3"/><polygon points="243.24 265.87 224.43 255 224.43 276.73 243.24 265.87" style="fill:#f0f0f0"/><polygon points="224.43 276.73 243.24 287.59 243.24 265.87 224.43 276.73" style="fill:#e3e3e3"/><polygon points="262.06 276.73 243.24 265.87 243.24 287.59 262.06 276.73" style="fill:#e3e3e3"/><polygon points="262.06 255 280.88 265.87 280.88 244.14 262.06 255" style="fill:#d4d4d4"/><polygon points="280.89 265.87 299.71 276.73 299.71 255 280.89 265.87" style="fill:#f0f0f0"/><polygon points="299.69 255 280.88 244.14 280.88 265.87 299.69 255" style="fill:#e3e3e3"/><polygon points="280.88 265.87 262.06 255 262.06 276.73 280.88 265.87" style="fill:#d4d4d4"/><polygon points="262.06 276.73 280.88 287.59 280.88 265.87 262.06 276.73" style="fill:#f0f0f0"/><polygon points="299.69 276.73 280.88 265.87 280.88 287.59 299.69 276.73" style="fill:#e3e3e3"/><polygon points="299.69 255 318.51 265.87 318.51 244.14 299.69 255" style="fill:#f0f0f0"/><polygon points="318.52 265.87 337.34 276.73 337.34 255 318.52 265.87" style="fill:#f0f0f0"/><polygon points="337.32 255 318.51 244.14 318.51 265.87 337.32 255" style="fill:#d4d4d4"/><polygon points="318.51 265.87 299.69 255 299.69 276.73 318.51 265.87" style="fill:#f0f0f0"/><polygon points="299.69 276.73 318.51 287.59 318.51 265.87 299.69 276.73" style="fill:#f0f0f0"/><polygon points="337.32 276.73 318.51 265.87 318.51 287.59 337.32 276.73" style="fill:#e3e3e3"/><polygon points="337.32 255 356.14 265.87 356.14 244.14 337.32 255" style="fill:#f0f0f0"/><polygon points="356.15 265.87 374.97 276.73 374.97 255 356.15 265.87" style="fill:#f7f7f7"/><polygon points="374.96 255 356.14 244.14 356.14 265.87 374.96 255" style="fill:#f0f0f0"/><polygon points="356.14 265.87 337.32 255 337.32 276.73 356.14 265.87" style="fill:#f7f7f7"/><polygon points="337.32 276.73 356.14 287.59 356.14 265.87 337.32 276.73" style="fill:#f0f0f0"/><polygon points="374.96 276.73 356.14 265.87 356.14 287.59 374.96 276.73" style="fill:#f7f7f7"/><polygon points="374.96 255 393.77 265.87 393.77 244.14 374.96 255" style="fill:#f0f0f0"/><polygon points="393.79 265.87 412.6 276.73 412.6 255 393.79 265.87" style="fill:#d4d4d4"/><polygon points="412.59 255 393.77 244.14 393.77 265.87 412.59 255" style="fill:#e3e3e3"/><polygon points="393.77 265.87 374.96 255 374.96 276.73 393.77 265.87" style="fill:#e3e3e3"/><polygon points="374.96 276.73 393.77 287.59 393.77 265.87 374.96 276.73" style="fill:#f0f0f0"/><polygon points="412.59 276.73 393.77 265.87 393.77 287.59 412.59 276.73" style="fill:#f7f7f7"/><polygon points="412.59 255 431.41 265.87 431.41 244.14 412.59 255" style="fill:#f0f0f0"/><polygon points="431.42 265.87 450.24 276.73 450.24 255 431.42 265.87" style="fill:#e3e3e3"/><polygon points="450.22 255 431.41 244.14 431.41 265.87 450.22 255" style="fill:#f0f0f0"/><polygon points="431.41 265.87 412.59 255 412.59 276.73 431.41 265.87" style="fill:#f7f7f7"/><polygon points="412.59 276.73 431.41 287.59 431.41 265.87 412.59 276.73" style="fill:#f0f0f0"/><polygon points="450.22 276.73 431.41 265.87 431.41 287.59 450.22 276.73" style="fill:#f7f7f7"/><polygon points="450.22 255 469.04 265.87 469.04 244.14 450.22 255" style="fill:#f0f0f0"/><polygon points="469.05 265.87 487.87 276.73 487.87 255 469.05 265.87" style="fill:#f0f0f0"/><polygon points="487.86 255 469.04 244.14 469.04 265.87 487.86 255" style="fill:#f0f0f0"/><polygon points="469.04 265.87 450.22 255 450.22 276.73 469.04 265.87" style="fill:#f7f7f7"/><polygon points="450.22 276.73 469.04 287.59 469.04 265.87 450.22 276.73" style="fill:#f0f0f0"/><polygon points="487.86 276.73 469.04 265.87 469.04 287.59 487.86 276.73" style="fill:#f0f0f0"/><polygon points="487.86 255 506.67 265.87 506.67 244.14 487.86 255" style="fill:#f0f0f0"/><polygon points="506.69 265.87 525.5 276.73 525.5 255 506.69 265.87" style="fill:#f0f0f0"/><polygon points="525.49 255 506.67 244.14 506.67 265.87 525.49 255" style="fill:#d4d4d4"/><polygon points="506.67 265.87 487.86 255 487.86 276.73 506.67 265.87" style="fill:#f7f7f7"/><polygon points="487.86 276.73 506.67 287.59 506.67 265.87 487.86 276.73" style="fill:#f7f7f7"/><polygon points="525.49 276.73 506.67 265.87 506.67 287.59 525.49 276.73" style="fill:#f0f0f0"/><polygon points="525.49 255 544.3 265.87 544.3 244.14 525.49 255" style="fill:#f7f7f7"/><polygon points="544.32 265.87 563.13 276.73 563.13 255 544.32 265.87" style="fill:#e3e3e3"/><polygon points="563.12 255 544.3 244.14 544.3 265.87 563.12 255" style="fill:#f0f0f0"/><polygon points="544.3 265.87 525.49 255 525.49 276.73 544.3 265.87" style="fill:#d4d4d4"/><polygon points="525.49 276.73 544.3 287.59 544.3 265.87 525.49 276.73" style="fill:#f7f7f7"/><polygon points="563.12 276.73 544.3 265.87 544.3 287.59 563.12 276.73" style="fill:#f0f0f0"/><polygon points="563.12 255 581.94 265.87 581.94 244.14 563.12 255" style="fill:#f0f0f0"/><polygon points="581.95 265.87 600.77 276.73 600.77 255 581.95 265.87" style="fill:#f0f0f0"/><polygon points="600.75 255 581.94 244.14 581.94 265.87 600.75 255" style="fill:#f7f7f7"/><polygon points="581.94 265.87 563.12 255 563.12 276.73 581.94 265.87" style="fill:#d4d4d4"/><polygon points="563.12 276.73 581.94 287.59 581.94 265.87 563.12 276.73" style="fill:#f0f0f0"/><polygon points="600.75 276.73 581.94 265.87 581.94 287.59 600.75 276.73" style="fill:#d4d4d4"/><polygon points="130.34 287.59 149.16 298.46 149.16 276.73 130.34 287.59" style="fill:#f0f0f0"/><polygon points="149.18 298.46 167.99 309.32 167.99 287.59 149.18 298.46" style="fill:#e3e3e3"/><polygon points="167.98 287.59 149.16 276.73 149.16 298.46 167.98 287.59" style="fill:#f7f7f7"/><polygon points="149.16 298.46 130.34 287.59 130.34 309.32 149.16 298.46" style="fill:#f0f0f0"/><polygon points="130.34 309.32 149.16 320.18 149.16 298.46 130.34 309.32" style="fill:#f7f7f7"/><polygon points="167.98 309.32 149.16 298.46 149.16 320.18 167.98 309.32" style="fill:#e3e3e3"/><polygon points="167.98 287.59 186.79 298.46 186.79 276.73 167.98 287.59" style="fill:#e3e3e3"/><polygon points="186.81 298.46 205.63 309.32 205.63 287.59 186.81 298.46" style="fill:#e3e3e3"/><polygon points="205.61 287.59 186.79 276.73 186.79 298.46 205.61 287.59" style="fill:#f7f7f7"/><polygon points="186.79 298.46 167.98 287.59 167.98 309.32 186.79 298.46" style="fill:#e3e3e3"/><polygon points="167.98 309.32 186.79 320.18 186.79 298.46 167.98 309.32" style="fill:#f0f0f0"/><polygon points="205.61 309.32 186.79 298.46 186.79 320.18 205.61 309.32" style="fill:#e3e3e3"/><polygon points="205.61 287.59 224.43 298.46 224.43 276.73 205.61 287.59" style="fill:#e3e3e3"/><polygon points="224.44 298.46 243.26 309.32 243.26 287.59 224.44 298.46" style="fill:#d4d4d4"/><polygon points="243.24 287.59 224.43 276.73 224.43 298.46 243.24 287.59" style="fill:#e3e3e3"/><polygon points="224.43 298.46 205.61 287.59 205.61 309.32 224.43 298.46" style="fill:#e3e3e3"/><polygon points="205.61 309.32 224.43 320.18 224.43 298.46 205.61 309.32" style="fill:#d4d4d4"/><polygon points="243.24 309.32 224.43 298.46 224.43 320.18 243.24 309.32" style="fill:#f0f0f0"/><polygon points="243.24 287.59 262.06 298.46 262.06 276.73 243.24 287.59" style="fill:#f0f0f0"/><polygon points="262.07 298.46 280.89 309.32 280.89 287.59 262.07 298.46" style="fill:#f0f0f0"/><polygon points="280.88 287.59 262.06 276.73 262.06 298.46 280.88 287.59" style="fill:#e3e3e3"/><polygon points="262.06 298.46 243.24 287.59 243.24 309.32 262.06 298.46" style="fill:#f0f0f0"/><polygon points="243.24 309.32 262.06 320.18 262.06 298.46 243.24 309.32" style="fill:#e3e3e3"/><polygon points="280.88 309.32 262.06 298.46 262.06 320.18 280.88 309.32" style="fill:#f0f0f0"/><polygon points="280.88 287.59 299.69 298.46 299.69 276.73 280.88 287.59" style="fill:#e3e3e3"/><polygon points="299.71 298.46 318.52 309.32 318.52 287.59 299.71 298.46" style="fill:#d4d4d4"/><polygon points="318.51 287.59 299.69 276.73 299.69 298.46 318.51 287.59" style="fill:#f0f0f0"/><polygon points="299.69 298.46 280.88 287.59 280.88 309.32 299.69 298.46" style="fill:#f0f0f0"/><polygon points="280.88 309.32 299.69 320.18 299.69 298.46 280.88 309.32" style="fill:#f0f0f0"/><polygon points="318.51 309.32 299.69 298.46 299.69 320.18 318.51 309.32" style="fill:#f7f7f7"/><polygon points="318.51 287.59 337.32 298.46 337.32 276.73 318.51 287.59" style="fill:#f7f7f7"/><polygon points="337.34 298.46 356.15 309.32 356.15 287.59 337.34 298.46" style="fill:#e3e3e3"/><polygon points="356.14 287.59 337.32 276.73 337.32 298.46 356.14 287.59" style="fill:#e3e3e3"/><polygon points="337.32 298.46 318.51 287.59 318.51 309.32 337.32 298.46" style="fill:#f7f7f7"/><polygon points="318.51 309.32 337.32 320.18 337.32 298.46 318.51 309.32" style="fill:#f7f7f7"/><polygon points="356.14 309.32 337.32 298.46 337.32 320.18 356.14 309.32" style="fill:#d4d4d4"/><polygon points="356.14 287.59 374.96 298.46 374.96 276.73 356.14 287.59" style="fill:#e3e3e3"/><polygon points="374.97 298.46 393.79 309.32 393.79 287.59 374.97 298.46" style="fill:#f0f0f0"/><polygon points="393.77 287.59 374.96 276.73 374.96 298.46 393.77 287.59" style="fill:#e3e3e3"/><polygon points="374.96 298.46 356.14 287.59 356.14 309.32 374.96 298.46" style="fill:#f7f7f7"/><polygon points="356.14 309.32 374.96 320.18 374.96 298.46 356.14 309.32" style="fill:#d4d4d4"/><polygon points="393.77 309.32 374.96 298.46 374.96 320.18 393.77 309.32" style="fill:#e3e3e3"/><polygon points="393.77 287.59 412.59 298.46 412.59 276.73 393.77 287.59" style="fill:#d4d4d4"/><polygon points="412.6 298.46 431.42 309.32 431.42 287.59 412.6 298.46" style="fill:#d4d4d4"/><polygon points="431.41 287.59 412.59 276.73 412.59 298.46 431.41 287.59" style="fill:#e3e3e3"/><polygon points="412.59 298.46 393.77 287.59 393.77 309.32 412.59 298.46" style="fill:#f0f0f0"/><polygon points="393.77 309.32 412.59 320.18 412.59 298.46 393.77 309.32" style="fill:#f0f0f0"/><polygon points="431.41 309.32 412.59 298.46 412.59 320.18 431.41 309.32" style="fill:#f0f0f0"/><polygon points="431.41 287.59 450.22 298.46 450.22 276.73 431.41 287.59" style="fill:#f0f0f0"/><polygon points="450.24 298.46 469.05 309.32 469.05 287.59 450.24 298.46" style="fill:#f7f7f7"/><polygon points="469.04 287.59 450.22 276.73 450.22 298.46 469.04 287.59" style="fill:#d4d4d4"/><polygon points="450.22 298.46 431.41 287.59 431.41 309.32 450.22 298.46" style="fill:#f0f0f0"/><polygon points="431.41 309.32 450.22 320.18 450.22 298.46 431.41 309.32" style="fill:#f7f7f7"/><polygon points="469.04 309.32 450.22 298.46 450.22 320.18 469.04 309.32" style="fill:#d4d4d4"/><polygon points="469.04 287.59 487.86 298.46 487.86 276.73 469.04 287.59" style="fill:#f7f7f7"/><polygon points="487.87 298.46 506.69 309.32 506.69 287.59 487.87 298.46" style="fill:#e3e3e3"/><polygon points="506.67 287.59 487.86 276.73 487.86 298.46 506.67 287.59" style="fill:#e3e3e3"/><polygon points="487.86 298.46 469.04 287.59 469.04 309.32 487.86 298.46" style="fill:#f7f7f7"/><polygon points="469.04 309.32 487.86 320.18 487.86 298.46 469.04 309.32" style="fill:#f0f0f0"/><polygon points="506.67 309.32 487.86 298.46 487.86 320.18 506.67 309.32" style="fill:#e3e3e3"/><polygon points="506.67 287.59 525.49 298.46 525.49 276.73 506.67 287.59" style="fill:#e3e3e3"/><polygon points="525.5 298.46 544.32 309.32 544.32 287.59 525.5 298.46" style="fill:#d4d4d4"/><polygon points="544.3 287.59 525.49 276.73 525.49 298.46 544.3 287.59" style="fill:#d4d4d4"/><polygon points="525.49 298.46 506.67 287.59 506.67 309.32 525.49 298.46" style="fill:#d4d4d4"/><polygon points="506.67 309.32 525.49 320.18 525.49 298.46 506.67 309.32" style="fill:#f7f7f7"/><polygon points="544.3 309.32 525.49 298.46 525.49 320.18 544.3 309.32" style="fill:#f0f0f0"/><polygon points="544.3 287.59 563.12 298.46 563.12 276.73 544.3 287.59" style="fill:#f0f0f0"/><polygon points="563.13 298.46 581.95 309.32 581.95 287.59 563.13 298.46" style="fill:#d4d4d4"/><polygon points="581.94 287.59 563.12 276.73 563.12 298.46 581.94 287.59" style="fill:#f7f7f7"/><polygon points="563.12 298.46 544.3 287.59 544.3 309.32 563.12 298.46" style="fill:#e3e3e3"/><polygon points="544.3 309.32 563.12 320.18 563.12 298.46 544.3 309.32" style="fill:#e3e3e3"/><polygon points="581.94 309.32 563.12 298.46 563.12 320.18 581.94 309.32" style="fill:#f0f0f0"/><polygon points="149.16 320.18 167.98 331.05 167.98 309.32 149.16 320.18" style="fill:#f7f7f7"/><polygon points="167.99 331.05 186.81 341.91 186.81 320.18 167.99 331.05" style="fill:#f0f0f0"/><polygon points="186.79 320.18 167.98 309.32 167.98 331.05 186.79 320.18" style="fill:#e3e3e3"/><polygon points="167.98 331.05 149.16 320.18 149.16 341.91 167.98 331.05" style="fill:#d4d4d4"/><polygon points="149.16 341.91 167.98 352.77 167.98 331.05 149.16 341.91" style="fill:#f7f7f7"/><polygon points="186.79 341.91 167.98 331.05 167.98 352.77 186.79 341.91" style="fill:#f0f0f0"/><polygon points="186.79 320.18 205.61 331.05 205.61 309.32 186.79 320.18" style="fill:#d4d4d4"/><polygon points="205.63 331.05 224.44 341.91 224.44 320.18 205.63 331.05" style="fill:#d4d4d4"/><polygon points="224.43 320.18 205.61 309.32 205.61 331.05 224.43 320.18" style="fill:#e3e3e3"/><polygon points="205.61 331.05 186.79 320.18 186.79 341.91 205.61 331.05" style="fill:#e3e3e3"/><polygon points="186.79 341.91 205.61 352.77 205.61 331.05 186.79 341.91" style="fill:#e3e3e3"/><polygon points="224.43 341.91 205.61 331.05 205.61 352.77 224.43 341.91" style="fill:#e3e3e3"/><polygon points="224.43 320.18 243.24 331.05 243.24 309.32 224.43 320.18" style="fill:#e3e3e3"/><polygon points="243.26 331.05 262.07 341.91 262.07 320.18 243.26 331.05" style="fill:#e3e3e3"/><polygon points="262.06 320.18 243.24 309.32 243.24 331.05 262.06 320.18" style="fill:#f7f7f7"/><polygon points="243.24 331.05 224.43 320.18 224.43 341.91 243.24 331.05" style="fill:#e3e3e3"/><polygon points="224.43 341.91 243.24 352.77 243.24 331.05 224.43 341.91" style="fill:#f0f0f0"/><polygon points="262.06 341.91 243.24 331.05 243.24 352.77 262.06 341.91" style="fill:#e3e3e3"/><polygon points="262.06 320.18 280.88 331.05 280.88 309.32 262.06 320.18" style="fill:#f0f0f0"/><polygon points="280.89 331.05 299.71 341.91 299.71 320.18 280.89 331.05" style="fill:#f0f0f0"/><polygon points="299.69 320.18 280.88 309.32 280.88 331.05 299.69 320.18" style="fill:#e3e3e3"/><polygon points="280.88 331.05 262.06 320.18 262.06 341.91 280.88 331.05" style="fill:#d4d4d4"/><polygon points="262.06 341.91 280.88 352.77 280.88 331.05 262.06 341.91" style="fill:#f0f0f0"/><polygon points="299.69 341.91 280.88 331.05 280.88 352.77 299.69 341.91" style="fill:#e3e3e3"/><polygon points="299.69 320.18 318.51 331.05 318.51 309.32 299.69 320.18" style="fill:#e3e3e3"/><polygon points="318.52 331.05 337.34 341.91 337.34 320.18 318.52 331.05" style="fill:#e3e3e3"/><polygon points="337.32 320.18 318.51 309.32 318.51 331.05 337.32 320.18" style="fill:#e3e3e3"/><polygon points="318.51 331.05 299.69 320.18 299.69 341.91 318.51 331.05" style="fill:#e3e3e3"/><polygon points="299.69 341.91 318.51 352.77 318.51 331.05 299.69 341.91" style="fill:#f0f0f0"/><polygon points="337.32 341.91 318.51 331.05 318.51 352.77 337.32 341.91" style="fill:#e3e3e3"/><polygon points="337.32 320.18 356.14 331.05 356.14 309.32 337.32 320.18" style="fill:#f0f0f0"/><polygon points="356.15 331.05 374.97 341.91 374.97 320.18 356.15 331.05" style="fill:#f0f0f0"/><polygon points="374.96 320.18 356.14 309.32 356.14 331.05 374.96 320.18" style="fill:#f7f7f7"/><polygon points="356.14 331.05 337.32 320.18 337.32 341.91 356.14 331.05" style="fill:#e3e3e3"/><polygon points="337.32 341.91 356.14 352.77 356.14 331.05 337.32 341.91" style="fill:#e3e3e3"/><polygon points="374.96 341.91 356.14 331.05 356.14 352.77 374.96 341.91" style="fill:#f0f0f0"/><polygon points="374.96 320.18 393.77 331.05 393.77 309.32 374.96 320.18" style="fill:#e3e3e3"/><polygon points="393.79 331.05 412.6 341.91 412.6 320.18 393.79 331.05" style="fill:#f0f0f0"/><polygon points="412.59 320.18 393.77 309.32 393.77 331.05 412.59 320.18" style="fill:#e3e3e3"/><polygon points="393.77 331.05 374.96 320.18 374.96 341.91 393.77 331.05" style="fill:#f0f0f0"/><polygon points="374.96 341.91 393.77 352.77 393.77 331.05 374.96 341.91" style="fill:#f0f0f0"/><polygon points="412.59 341.91 393.77 331.05 393.77 352.77 412.59 341.91" style="fill:#e3e3e3"/><polygon points="412.59 320.18 431.41 331.05 431.41 309.32 412.59 320.18" style="fill:#d4d4d4"/><polygon points="431.42 331.05 450.24 341.91 450.24 320.18 431.42 331.05" style="fill:#f0f0f0"/><polygon points="450.22 320.18 431.41 309.32 431.41 331.05 450.22 320.18" style="fill:#f7f7f7"/><polygon points="431.41 331.05 412.59 320.18 412.59 341.91 431.41 331.05" style="fill:#f0f0f0"/><polygon points="412.59 341.91 431.41 352.77 431.41 331.05 412.59 341.91" style="fill:#f7f7f7"/><polygon points="450.22 341.91 431.41 331.05 431.41 352.77 450.22 341.91" style="fill:#e3e3e3"/><polygon points="450.22 320.18 469.04 331.05 469.04 309.32 450.22 320.18" style="fill:#f0f0f0"/><polygon points="469.05 331.05 487.87 341.91 487.87 320.18 469.05 331.05" style="fill:#f7f7f7"/><polygon points="487.86 320.18 469.04 309.32 469.04 331.05 487.86 320.18" style="fill:#f7f7f7"/><polygon points="469.04 331.05 450.22 320.18 450.22 341.91 469.04 331.05" style="fill:#d4d4d4"/><polygon points="450.22 341.91 469.04 352.77 469.04 331.05 450.22 341.91" style="fill:#e3e3e3"/><polygon points="487.86 341.91 469.04 331.05 469.04 352.77 487.86 341.91" style="fill:#f7f7f7"/><polygon points="487.86 320.18 506.67 331.05 506.67 309.32 487.86 320.18" style="fill:#e3e3e3"/><polygon points="506.69 331.05 525.5 341.91 525.5 320.18 506.69 331.05" style="fill:#e3e3e3"/><polygon points="525.49 320.18 506.67 309.32 506.67 331.05 525.49 320.18" style="fill:#e3e3e3"/><polygon points="506.67 331.05 487.86 320.18 487.86 341.91 506.67 331.05" style="fill:#e3e3e3"/><polygon points="487.86 341.91 506.67 352.77 506.67 331.05 487.86 341.91" style="fill:#f0f0f0"/><polygon points="525.49 341.91 506.67 331.05 506.67 352.77 525.49 341.91" style="fill:#e3e3e3"/><polygon points="525.49 320.18 544.3 331.05 544.3 309.32 525.49 320.18" style="fill:#f7f7f7"/><polygon points="544.32 331.05 563.13 341.91 563.13 320.18 544.32 331.05" style="fill:#d4d4d4"/><polygon points="563.12 320.18 544.3 309.32 544.3 331.05 563.12 320.18" style="fill:#e3e3e3"/><polygon points="544.3 331.05 525.49 320.18 525.49 341.91 544.3 331.05" style="fill:#e3e3e3"/><polygon points="525.49 341.91 544.3 352.77 544.3 331.05 525.49 341.91" style="fill:#e3e3e3"/><polygon points="563.12 341.91 544.3 331.05 544.3 352.77 563.12 341.91" style="fill:#d4d4d4"/><polygon points="563.12 320.18 581.94 331.05 581.94 309.32 563.12 320.18" style="fill:#d4d4d4"/><polygon points="581.95 331.05 600.77 341.91 600.77 320.18 581.95 331.05" style="fill:#e3e3e3"/><polygon points="600.75 320.18 581.94 309.32 581.94 331.05 600.75 320.18" style="fill:#e3e3e3"/><polygon points="581.94 331.05 563.12 320.18 563.12 341.91 581.94 331.05" style="fill:#f0f0f0"/><polygon points="563.12 341.91 581.94 352.77 581.94 331.05 563.12 341.91" style="fill:#f0f0f0"/><polygon points="600.75 341.91 581.94 331.05 581.94 352.77 600.75 341.91" style="fill:#f7f7f7"/><polygon points="130.34 352.77 149.16 363.64 149.16 341.91 130.34 352.77" style="fill:#f0f0f0"/><polygon points="149.18 363.64 167.99 374.5 167.99 352.77 149.18 363.64" style="fill:#f7f7f7"/><polygon points="167.98 352.77 149.16 341.91 149.16 363.64 167.98 352.77" style="fill:#e3e3e3"/><polygon points="149.16 363.64 130.34 352.77 130.34 374.5 149.16 363.64" style="fill:#f0f0f0"/><polygon points="130.34 374.5 149.16 385.37 149.16 363.64 130.34 374.5" style="fill:#f0f0f0"/><polygon points="167.98 374.5 149.16 363.64 149.16 385.37 167.98 374.5" style="fill:#f0f0f0"/><polygon points="167.98 352.77 186.79 363.64 186.79 341.91 167.98 352.77" style="fill:#d4d4d4"/><polygon points="186.81 363.64 205.63 374.5 205.63 352.77 186.81 363.64" style="fill:#f0f0f0"/><polygon points="205.61 352.77 186.79 341.91 186.79 363.64 205.61 352.77" style="fill:#f7f7f7"/><polygon points="186.79 363.64 167.98 352.77 167.98 374.5 186.79 363.64" style="fill:#f0f0f0"/><polygon points="167.98 374.5 186.79 385.37 186.79 363.64 167.98 374.5" style="fill:#f0f0f0"/><polygon points="205.61 374.5 186.79 363.64 186.79 385.37 205.61 374.5" style="fill:#f0f0f0"/><polygon points="205.61 352.77 224.43 363.64 224.43 341.91 205.61 352.77" style="fill:#f0f0f0"/><polygon points="224.44 363.64 243.26 374.5 243.26 352.77 224.44 363.64" style="fill:#f7f7f7"/><polygon points="243.24 352.77 224.43 341.91 224.43 363.64 243.24 352.77" style="fill:#d4d4d4"/><polygon points="224.43 363.64 205.61 352.77 205.61 374.5 224.43 363.64" style="fill:#f0f0f0"/><polygon points="205.61 374.5 224.43 385.37 224.43 363.64 205.61 374.5" style="fill:#e3e3e3"/><polygon points="243.24 374.5 224.43 363.64 224.43 385.37 243.24 374.5" style="fill:#f0f0f0"/><polygon points="243.24 352.77 262.06 363.64 262.06 341.91 243.24 352.77" style="fill:#d4d4d4"/><polygon points="262.07 363.64 280.89 374.5 280.89 352.77 262.07 363.64" style="fill:#d4d4d4"/><polygon points="280.88 352.77 262.06 341.91 262.06 363.64 280.88 352.77" style="fill:#d4d4d4"/><polygon points="262.06 363.64 243.24 352.77 243.24 374.5 262.06 363.64" style="fill:#e3e3e3"/><polygon points="243.24 374.5 262.06 385.37 262.06 363.64 243.24 374.5" style="fill:#d4d4d4"/><polygon points="280.88 374.5 262.06 363.64 262.06 385.37 280.88 374.5" style="fill:#d4d4d4"/><polygon points="280.88 352.77 299.69 363.64 299.69 341.91 280.88 352.77" style="fill:#f7f7f7"/><polygon points="299.71 363.64 318.52 374.5 318.52 352.77 299.71 363.64" style="fill:#f7f7f7"/><polygon points="318.51 352.77 299.69 341.91 299.69 363.64 318.51 352.77" style="fill:#d4d4d4"/><polygon points="299.69 363.64 280.88 352.77 280.88 374.5 299.69 363.64" style="fill:#d4d4d4"/><polygon points="280.88 374.5 299.69 385.37 299.69 363.64 280.88 374.5" style="fill:#e3e3e3"/><polygon points="318.51 374.5 299.69 363.64 299.69 385.37 318.51 374.5" style="fill:#f0f0f0"/><polygon points="318.51 352.77 337.32 363.64 337.32 341.91 318.51 352.77" style="fill:#e3e3e3"/><polygon points="337.34 363.64 356.15 374.5 356.15 352.77 337.34 363.64" style="fill:#e3e3e3"/><polygon points="356.14 352.77 337.32 341.91 337.32 363.64 356.14 352.77" style="fill:#f7f7f7"/><polygon points="337.32 363.64 318.51 352.77 318.51 374.5 337.32 363.64" style="fill:#f7f7f7"/><polygon points="318.51 374.5 337.32 385.37 337.32 363.64 318.51 374.5" style="fill:#d4d4d4"/><polygon points="356.14 374.5 337.32 363.64 337.32 385.37 356.14 374.5" style="fill:#f0f0f0"/><polygon points="356.14 352.77 374.96 363.64 374.96 341.91 356.14 352.77" style="fill:#f0f0f0"/><polygon points="374.97 363.64 393.79 374.5 393.79 352.77 374.97 363.64" style="fill:#f0f0f0"/><polygon points="393.77 352.77 374.96 341.91 374.96 363.64 393.77 352.77" style="fill:#f7f7f7"/><polygon points="374.96 363.64 356.14 352.77 356.14 374.5 374.96 363.64" style="fill:#f7f7f7"/><polygon points="356.14 374.5 374.96 385.37 374.96 363.64 356.14 374.5" style="fill:#f0f0f0"/><polygon points="393.77 374.5 374.96 363.64 374.96 385.37 393.77 374.5" style="fill:#f0f0f0"/><polygon points="393.77 352.77 412.59 363.64 412.59 341.91 393.77 352.77" style="fill:#f0f0f0"/><polygon points="412.6 363.64 431.42 374.5 431.42 352.77 412.6 363.64" style="fill:#e3e3e3"/><polygon points="431.41 352.77 412.59 341.91 412.59 363.64 431.41 352.77" style="fill:#e3e3e3"/><polygon points="412.59 363.64 393.77 352.77 393.77 374.5 412.59 363.64" style="fill:#f7f7f7"/><polygon points="393.77 374.5 412.59 385.37 412.59 363.64 393.77 374.5" style="fill:#e3e3e3"/><polygon points="431.41 374.5 412.59 363.64 412.59 385.37 431.41 374.5" style="fill:#f0f0f0"/><polygon points="431.41 352.77 450.22 363.64 450.22 341.91 431.41 352.77" style="fill:#e3e3e3"/><polygon points="450.24 363.64 469.05 374.5 469.05 352.77 450.24 363.64" style="fill:#e3e3e3"/><polygon points="469.04 352.77 450.22 341.91 450.22 363.64 469.04 352.77" style="fill:#f0f0f0"/><polygon points="450.22 363.64 431.41 352.77 431.41 374.5 450.22 363.64" style="fill:#d4d4d4"/><polygon points="431.41 374.5 450.22 385.37 450.22 363.64 431.41 374.5" style="fill:#e3e3e3"/><polygon points="469.04 374.5 450.22 363.64 450.22 385.37 469.04 374.5" style="fill:#e3e3e3"/><polygon points="469.04 352.77 487.86 363.64 487.86 341.91 469.04 352.77" style="fill:#e3e3e3"/><polygon points="487.87 363.64 506.69 374.5 506.69 352.77 487.87 363.64" style="fill:#f0f0f0"/><polygon points="506.67 352.77 487.86 341.91 487.86 363.64 506.67 352.77" style="fill:#f0f0f0"/><polygon points="487.86 363.64 469.04 352.77 469.04 374.5 487.86 363.64" style="fill:#f0f0f0"/><polygon points="469.04 374.5 487.86 385.37 487.86 363.64 469.04 374.5" style="fill:#d4d4d4"/><polygon points="506.67 374.5 487.86 363.64 487.86 385.37 506.67 374.5" style="fill:#f0f0f0"/><polygon points="506.67 352.77 525.49 363.64 525.49 341.91 506.67 352.77" style="fill:#f7f7f7"/><polygon points="525.5 363.64 544.32 374.5 544.32 352.77 525.5 363.64" style="fill:#e3e3e3"/><polygon points="544.3 352.77 525.49 341.91 525.49 363.64 544.3 352.77" style="fill:#d4d4d4"/><polygon points="525.49 363.64 506.67 352.77 506.67 374.5 525.49 363.64" style="fill:#f0f0f0"/><polygon points="506.67 374.5 525.49 385.37 525.49 363.64 506.67 374.5" style="fill:#e3e3e3"/><polygon points="544.3 374.5 525.49 363.64 525.49 385.37 544.3 374.5" style="fill:#f0f0f0"/><polygon points="544.3 352.77 563.12 363.64 563.12 341.91 544.3 352.77" style="fill:#e3e3e3"/><polygon points="563.13 363.64 581.95 374.5 581.95 352.77 563.13 363.64" style="fill:#f0f0f0"/><polygon points="581.94 352.77 563.12 341.91 563.12 363.64 581.94 352.77" style="fill:#e3e3e3"/><polygon points="563.12 363.64 544.3 352.77 544.3 374.5 563.12 363.64" style="fill:#f7f7f7"/><polygon points="544.3 374.5 563.12 385.37 563.12 363.64 544.3 374.5" style="fill:#e3e3e3"/><polygon points="581.94 374.5 563.12 363.64 563.12 385.37 581.94 374.5" style="fill:#e3e3e3"/><polygon points="149.16 385.37 167.98 396.23 167.98 374.5 149.16 385.37" style="fill:#e3e3e3"/><polygon points="167.99 396.23 186.81 407.09 186.81 385.37 167.99 396.23" style="fill:#f7f7f7"/><polygon points="186.79 385.37 167.98 374.5 167.98 396.23 186.79 385.37" style="fill:#d4d4d4"/><polygon points="167.98 396.23 149.16 385.37 149.16 407.09 167.98 396.23" style="fill:#d4d4d4"/><polygon points="149.16 407.09 167.98 417.96 167.98 396.23 149.16 407.09" style="fill:#e3e3e3"/><polygon points="186.79 407.09 167.98 396.23 167.98 417.96 186.79 407.09" style="fill:#e3e3e3"/><polygon points="186.79 385.37 205.61 396.23 205.61 374.5 186.79 385.37" style="fill:#f7f7f7"/><polygon points="205.63 396.23 224.44 407.09 224.44 385.37 205.63 396.23" style="fill:#e3e3e3"/><polygon points="224.43 385.37 205.61 374.5 205.61 396.23 224.43 385.37" style="fill:#f0f0f0"/><polygon points="205.61 396.23 186.79 385.37 186.79 407.09 205.61 396.23" style="fill:#e3e3e3"/><polygon points="186.79 407.09 205.61 417.96 205.61 396.23 186.79 407.09" style="fill:#f7f7f7"/><polygon points="224.43 407.09 205.61 396.23 205.61 417.96 224.43 407.09" style="fill:#f0f0f0"/><polygon points="224.43 385.37 243.24 396.23 243.24 374.5 224.43 385.37" style="fill:#e3e3e3"/><polygon points="243.26 396.23 262.07 407.09 262.07 385.37 243.26 396.23" style="fill:#f0f0f0"/><polygon points="262.06 385.37 243.24 374.5 243.24 396.23 262.06 385.37" style="fill:#d4d4d4"/><polygon points="243.24 396.23 224.43 385.37 224.43 407.09 243.24 396.23" style="fill:#f0f0f0"/><polygon points="224.43 407.09 243.24 417.96 243.24 396.23 224.43 407.09" style="fill:#d4d4d4"/><polygon points="262.06 407.09 243.24 396.23 243.24 417.96 262.06 407.09" style="fill:#f0f0f0"/><polygon points="262.06 385.37 280.88 396.23 280.88 374.5 262.06 385.37" style="fill:#e3e3e3"/><polygon points="280.89 396.23 299.71 407.09 299.71 385.37 280.89 396.23" style="fill:#d4d4d4"/><polygon points="299.69 385.37 280.88 374.5 280.88 396.23 299.69 385.37" style="fill:#f7f7f7"/><polygon points="280.88 396.23 262.06 385.37 262.06 407.09 280.88 396.23" style="fill:#d4d4d4"/><polygon points="262.06 407.09 280.88 417.96 280.88 396.23 262.06 407.09" style="fill:#e3e3e3"/><polygon points="299.69 407.09 280.88 396.23 280.88 417.96 299.69 407.09" style="fill:#f0f0f0"/><polygon points="299.69 385.37 318.51 396.23 318.51 374.5 299.69 385.37" style="fill:#e3e3e3"/><polygon points="318.52 396.23 337.34 407.09 337.34 385.37 318.52 396.23" style="fill:#e3e3e3"/><polygon points="337.32 385.37 318.51 374.5 318.51 396.23 337.32 385.37" style="fill:#e3e3e3"/><polygon points="318.51 396.23 299.69 385.37 299.69 407.09 318.51 396.23" style="fill:#f0f0f0"/><polygon points="299.69 407.09 318.51 417.96 318.51 396.23 299.69 407.09" style="fill:#f7f7f7"/><polygon points="337.32 407.09 318.51 396.23 318.51 417.96 337.32 407.09" style="fill:#d4d4d4"/><polygon points="337.32 385.37 356.14 396.23 356.14 374.5 337.32 385.37" style="fill:#f7f7f7"/><polygon points="356.15 396.23 374.97 407.09 374.97 385.37 356.15 396.23" style="fill:#f0f0f0"/><polygon points="374.96 385.37 356.14 374.5 356.14 396.23 374.96 385.37" style="fill:#f0f0f0"/><polygon points="356.14 396.23 337.32 385.37 337.32 407.09 356.14 396.23" style="fill:#d4d4d4"/><polygon points="337.32 407.09 356.14 417.96 356.14 396.23 337.32 407.09" style="fill:#e3e3e3"/><polygon points="374.96 407.09 356.14 396.23 356.14 417.96 374.96 407.09" style="fill:#e3e3e3"/><polygon points="374.96 385.37 393.77 396.23 393.77 374.5 374.96 385.37" style="fill:#e3e3e3"/><polygon points="393.79 396.23 412.6 407.09 412.6 385.37 393.79 396.23" style="fill:#f0f0f0"/><polygon points="412.59 385.37 393.77 374.5 393.77 396.23 412.59 385.37" style="fill:#e3e3e3"/><polygon points="393.77 396.23 374.96 385.37 374.96 407.09 393.77 396.23" style="fill:#d4d4d4"/><polygon points="374.96 407.09 393.77 417.96 393.77 396.23 374.96 407.09" style="fill:#e3e3e3"/><polygon points="412.59 407.09 393.77 396.23 393.77 417.96 412.59 407.09" style="fill:#e3e3e3"/><polygon points="412.59 385.37 431.41 396.23 431.41 374.5 412.59 385.37" style="fill:#f0f0f0"/><polygon points="431.42 396.23 450.24 407.09 450.24 385.37 431.42 396.23" style="fill:#d4d4d4"/><polygon points="450.22 385.37 431.41 374.5 431.41 396.23 450.22 385.37" style="fill:#f0f0f0"/><polygon points="431.41 396.23 412.59 385.37 412.59 407.09 431.41 396.23" style="fill:#e3e3e3"/><polygon points="412.59 407.09 431.41 417.96 431.41 396.23 412.59 407.09" style="fill:#f7f7f7"/><polygon points="450.22 407.09 431.41 396.23 431.41 417.96 450.22 407.09" style="fill:#d4d4d4"/><polygon points="450.22 385.37 469.04 396.23 469.04 374.5 450.22 385.37" style="fill:#d4d4d4"/><polygon points="469.05 396.23 487.87 407.09 487.87 385.37 469.05 396.23" style="fill:#f0f0f0"/><polygon points="487.86 385.37 469.04 374.5 469.04 396.23 487.86 385.37" style="fill:#f0f0f0"/><polygon points="469.04 396.23 450.22 385.37 450.22 407.09 469.04 396.23" style="fill:#f0f0f0"/><polygon points="450.22 407.09 469.04 417.96 469.04 396.23 450.22 407.09" style="fill:#d4d4d4"/><polygon points="487.86 407.09 469.04 396.23 469.04 417.96 487.86 407.09" style="fill:#f0f0f0"/><polygon points="487.86 385.37 506.67 396.23 506.67 374.5 487.86 385.37" style="fill:#e3e3e3"/><polygon points="506.69 396.23 525.5 407.09 525.5 385.37 506.69 396.23" style="fill:#e3e3e3"/><polygon points="525.49 385.37 506.67 374.5 506.67 396.23 525.49 385.37" style="fill:#d4d4d4"/><polygon points="506.67 396.23 487.86 385.37 487.86 407.09 506.67 396.23" style="fill:#f0f0f0"/><polygon points="487.86 407.09 506.67 417.96 506.67 396.23 487.86 407.09" style="fill:#e3e3e3"/><polygon points="525.49 407.09 506.67 396.23 506.67 417.96 525.49 407.09" style="fill:#f0f0f0"/><polygon points="525.49 385.37 544.3 396.23 544.3 374.5 525.49 385.37" style="fill:#f7f7f7"/><polygon points="544.32 396.23 563.13 407.09 563.13 385.37 544.32 396.23" style="fill:#f0f0f0"/><polygon points="563.12 385.37 544.3 374.5 544.3 396.23 563.12 385.37" style="fill:#f0f0f0"/><polygon points="544.3 396.23 525.49 385.37 525.49 407.09 544.3 396.23" style="fill:#d4d4d4"/><polygon points="525.49 407.09 544.3 417.96 544.3 396.23 525.49 407.09" style="fill:#d4d4d4"/><polygon points="563.12 407.09 544.3 396.23 544.3 417.96 563.12 407.09" style="fill:#f7f7f7"/><polygon points="563.12 385.37 581.94 396.23 581.94 374.5 563.12 385.37" style="fill:#d4d4d4"/><polygon points="581.95 396.23 600.77 407.09 600.77 385.37 581.95 396.23" style="fill:#e3e3e3"/><polygon points="600.75 385.37 581.94 374.5 581.94 396.23 600.75 385.37" style="fill:#f7f7f7"/><polygon points="581.94 396.23 563.12 385.37 563.12 407.09 581.94 396.23" style="fill:#f0f0f0"/><polygon points="563.12 407.09 581.94 417.96 581.94 396.23 563.12 407.09" style="fill:#e3e3e3"/><polygon points="600.75 407.09 581.94 396.23 581.94 417.96 600.75 407.09" style="fill:#f0f0f0"/><polygon points="130.34 417.96 149.16 428.82 149.16 407.09 130.34 417.96" style="fill:#f0f0f0"/><polygon points="149.18 428.82 167.99 439.68 167.99 417.96 149.18 428.82" style="fill:#f7f7f7"/><polygon points="167.98 417.96 149.16 407.09 149.16 428.82 167.98 417.96" style="fill:#e3e3e3"/><polygon points="149.16 428.82 130.34 417.96 130.34 439.68 149.16 428.82" style="fill:#e3e3e3"/><polygon points="130.34 439.68 149.16 450.55 149.16 428.82 130.34 439.68" style="fill:#f0f0f0"/><polygon points="167.98 439.68 149.16 428.82 149.16 450.55 167.98 439.68" style="fill:#e3e3e3"/><polygon points="167.98 417.96 186.79 428.82 186.79 407.09 167.98 417.96" style="fill:#e3e3e3"/><polygon points="186.81 428.82 205.63 439.68 205.63 417.96 186.81 428.82" style="fill:#f7f7f7"/><polygon points="205.61 417.96 186.79 407.09 186.79 428.82 205.61 417.96" style="fill:#f0f0f0"/><polygon points="186.79 428.82 167.98 417.96 167.98 439.68 186.79 428.82" style="fill:#d4d4d4"/><polygon points="167.98 439.68 186.79 450.55 186.79 428.82 167.98 439.68" style="fill:#e3e3e3"/><polygon points="205.61 439.68 186.79 428.82 186.79 450.55 205.61 439.68" style="fill:#e3e3e3"/><polygon points="205.61 417.96 224.43 428.82 224.43 407.09 205.61 417.96" style="fill:#d4d4d4"/><polygon points="224.44 428.82 243.26 439.68 243.26 417.96 224.44 428.82" style="fill:#d4d4d4"/><polygon points="243.24 417.96 224.43 407.09 224.43 428.82 243.24 417.96" style="fill:#e3e3e3"/><polygon points="224.43 428.82 205.61 417.96 205.61 439.68 224.43 428.82" style="fill:#d4d4d4"/><polygon points="205.61 439.68 224.43 450.55 224.43 428.82 205.61 439.68" style="fill:#f7f7f7"/><polygon points="243.24 439.68 224.43 428.82 224.43 450.55 243.24 439.68" style="fill:#f0f0f0"/><polygon points="243.24 417.96 262.06 428.82 262.06 407.09 243.24 417.96" style="fill:#f0f0f0"/><polygon points="262.07 428.82 280.89 439.68 280.89 417.96 262.07 428.82" style="fill:#e3e3e3"/><polygon points="280.88 417.96 262.06 407.09 262.06 428.82 280.88 417.96" style="fill:#f7f7f7"/><polygon points="262.06 428.82 243.24 417.96 243.24 439.68 262.06 428.82" style="fill:#e3e3e3"/><polygon points="243.24 439.68 262.06 450.55 262.06 428.82 243.24 439.68" style="fill:#f7f7f7"/><polygon points="280.88 439.68 262.06 428.82 262.06 450.55 280.88 439.68" style="fill:#f0f0f0"/><polygon points="280.88 417.96 299.69 428.82 299.69 407.09 280.88 417.96" style="fill:#f0f0f0"/><polygon points="299.71 428.82 318.52 439.68 318.52 417.96 299.71 428.82" style="fill:#f7f7f7"/><polygon points="318.51 417.96 299.69 407.09 299.69 428.82 318.51 417.96" style="fill:#f0f0f0"/><polygon points="299.69 428.82 280.88 417.96 280.88 439.68 299.69 428.82" style="fill:#e3e3e3"/><polygon points="280.88 439.68 299.69 450.55 299.69 428.82 280.88 439.68" style="fill:#e3e3e3"/><polygon points="318.51 439.68 299.69 428.82 299.69 450.55 318.51 439.68" style="fill:#e3e3e3"/><polygon points="318.51 417.96 337.32 428.82 337.32 407.09 318.51 417.96" style="fill:#f0f0f0"/><polygon points="337.34 428.82 356.15 439.68 356.15 417.96 337.34 428.82" style="fill:#f0f0f0"/><polygon points="356.14 417.96 337.32 407.09 337.32 428.82 356.14 417.96" style="fill:#d4d4d4"/><polygon points="337.32 428.82 318.51 417.96 318.51 439.68 337.32 428.82" style="fill:#f0f0f0"/><polygon points="318.51 439.68 337.32 450.55 337.32 428.82 318.51 439.68" style="fill:#f7f7f7"/><polygon points="356.14 439.68 337.32 428.82 337.32 450.55 356.14 439.68" style="fill:#f0f0f0"/><polygon points="356.14 417.96 374.96 428.82 374.96 407.09 356.14 417.96" style="fill:#f0f0f0"/><polygon points="374.97 428.82 393.79 439.68 393.79 417.96 374.97 428.82" style="fill:#f0f0f0"/><polygon points="393.77 417.96 374.96 407.09 374.96 428.82 393.77 417.96" style="fill:#f0f0f0"/><polygon points="374.96 428.82 356.14 417.96 356.14 439.68 374.96 428.82" style="fill:#e3e3e3"/><polygon points="356.14 439.68 374.96 450.55 374.96 428.82 356.14 439.68" style="fill:#f0f0f0"/><polygon points="393.77 439.68 374.96 428.82 374.96 450.55 393.77 439.68" style="fill:#e3e3e3"/><polygon points="393.77 417.96 412.59 428.82 412.59 407.09 393.77 417.96" style="fill:#e3e3e3"/><polygon points="412.6 428.82 431.42 439.68 431.42 417.96 412.6 428.82" style="fill:#f0f0f0"/><polygon points="431.41 417.96 412.59 407.09 412.59 428.82 431.41 417.96" style="fill:#d4d4d4"/><polygon points="412.59 428.82 393.77 417.96 393.77 439.68 412.59 428.82" style="fill:#f0f0f0"/><polygon points="393.77 439.68 412.59 450.55 412.59 428.82 393.77 439.68" style="fill:#e3e3e3"/><polygon points="431.41 439.68 412.59 428.82 412.59 450.55 431.41 439.68" style="fill:#f7f7f7"/><polygon points="431.41 417.96 450.22 428.82 450.22 407.09 431.41 417.96" style="fill:#f0f0f0"/><polygon points="450.24 428.82 469.05 439.68 469.05 417.96 450.24 428.82" style="fill:#f7f7f7"/><polygon points="469.04 417.96 450.22 407.09 450.22 428.82 469.04 417.96" style="fill:#d4d4d4"/><polygon points="450.22 428.82 431.41 417.96 431.41 439.68 450.22 428.82" style="fill:#f0f0f0"/><polygon points="431.41 439.68 450.22 450.55 450.22 428.82 431.41 439.68" style="fill:#d4d4d4"/><polygon points="469.04 439.68 450.22 428.82 450.22 450.55 469.04 439.68" style="fill:#f0f0f0"/><polygon points="469.04 417.96 487.86 428.82 487.86 407.09 469.04 417.96" style="fill:#f7f7f7"/><polygon points="487.87 428.82 506.69 439.68 506.69 417.96 487.87 428.82" style="fill:#f7f7f7"/><polygon points="506.67 417.96 487.86 407.09 487.86 428.82 506.67 417.96" style="fill:#f0f0f0"/><polygon points="487.86 428.82 469.04 417.96 469.04 439.68 487.86 428.82" style="fill:#f0f0f0"/><polygon points="469.04 439.68 487.86 450.55 487.86 428.82 469.04 439.68" style="fill:#f7f7f7"/><polygon points="506.67 439.68 487.86 428.82 487.86 450.55 506.67 439.68" style="fill:#f0f0f0"/><polygon points="506.67 417.96 525.49 428.82 525.49 407.09 506.67 417.96" style="fill:#f0f0f0"/><polygon points="525.5 428.82 544.32 439.68 544.32 417.96 525.5 428.82" style="fill:#e3e3e3"/><polygon points="544.3 417.96 525.49 407.09 525.49 428.82 544.3 417.96" style="fill:#f0f0f0"/><polygon points="525.49 428.82 506.67 417.96 506.67 439.68 525.49 428.82" style="fill:#f0f0f0"/><polygon points="506.67 439.68 525.49 450.55 525.49 428.82 506.67 439.68" style="fill:#f7f7f7"/><polygon points="544.3 439.68 525.49 428.82 525.49 450.55 544.3 439.68" style="fill:#f0f0f0"/><polygon points="544.3 417.96 563.12 428.82 563.12 407.09 544.3 417.96" style="fill:#f7f7f7"/><polygon points="563.13 428.82 581.95 439.68 581.95 417.96 563.13 428.82" style="fill:#d4d4d4"/><polygon points="581.94 417.96 563.12 407.09 563.12 428.82 581.94 417.96" style="fill:#f0f0f0"/><polygon points="563.12 428.82 544.3 417.96 544.3 439.68 563.12 428.82" style="fill:#e3e3e3"/><polygon points="544.3 439.68 563.12 450.55 563.12 428.82 544.3 439.68" style="fill:#f0f0f0"/><polygon points="581.94 439.68 563.12 428.82 563.12 450.55 581.94 439.68" style="fill:#d4d4d4"/><path d="M407.26,309c-29.08-4.33-120.47-47.77-224.67-107.82S-5,83.81-23.36,60.82Z" transform="translate(149.62 137.72)" style="mix-blend-mode:multiply;fill:url(#radial-gradient)"/><path d="M521.41,244.69c-29.09-4.34-120.47-47.77-224.68-107.82S109.12,19.54,90.79-3.45Z" transform="translate(149.62 137.72)" style="mix-blend-mode:multiply;fill:url(#radial-gradient-2)"/><path d="M280.9,63.62C262.57,86.61,179.19,143.93,75,204S-120.54,307.57-149.62,311.92Z" transform="translate(149.62 137.72)" style="mix-blend-mode:multiply;fill:url(#radial-gradient-3)"/><path d="M366.23-137.72c-18.32,23-101.71,80.31-205.89,140.4S-35.21,106.24-64.29,110.58Z" transform="translate(149.62 137.72)" style="mix-blend-mode:multiply;fill:url(#radial-gradient-4)"/><rect x="138.31" y="134.6" width="447.48" height="304.76" style="mix-blend-mode:screen;fill:url(#linear-gradient)"/></g></g></g></svg>